<?xml version="1.0" standalone="no"?>
<!DOCTYPE svg PUBLIC "-//W3C//DTD SVG 1.1//EN" "http://www.w3.org/Graphics/SVG/1.1/DTD/svg11.dtd" >
<svg xmlns="http://www.w3.org/2000/svg" xmlns:xlink="http://www.w3.org/1999/xlink" version="1.1">
<metadata>
Created by FontForge 20170812 at Tue Oct 30 16:41:27 2018
 By root
</metadata>
<defs>
<font id="ClassyBeautiful2Regular" horiz-adv-x="315" >
  <font-face 
    font-family="Classy Beautiful 2"
    font-weight="400"
    font-stretch="normal"
    units-per-em="1000"
    panose-1="0 0 0 0 0 0 0 0 0 0"
    ascent="800"
    descent="-200"
    cap-height="701"
    bbox="18 0 468 702"
    underline-thickness="50"
    underline-position="-150"
    unicode-range="U+0020-00A0"
  />
    <missing-glyph />
    <glyph glyph-name="space" unicode=" " horiz-adv-x="180" 
 />
    <glyph glyph-name="A" unicode="A" 
d="M167 699q51 0 87 -36t36 -86v-576h-79v130h-104v-130h-78v576q0 50 36 86t86 36h16zM209 216v354q0 14 -7 26t-18 19t-25 7q-20 0 -34.5 -15.5t-14.5 -36.5v-354h99z" />
    <glyph glyph-name="A" unicode="&#xc5;" 
d="M167 699q51 0 87 -36t36 -86v-576h-79v130h-104v-130h-78v576q0 50 36 86t86 36h16zM209 216v354q0 14 -7 26t-18 19t-25 7q-20 0 -34.5 -15.5t-14.5 -36.5v-354h99z" />
    <glyph glyph-name="A" unicode="&#xc4;" 
d="M167 699q51 0 87 -36t36 -86v-576h-79v130h-104v-130h-78v576q0 50 36 86t86 36h16zM209 216v354q0 14 -7 26t-18 19t-25 7q-20 0 -34.5 -15.5t-14.5 -36.5v-354h99z" />
    <glyph glyph-name="A" unicode="&#xc3;" 
d="M167 699q51 0 87 -36t36 -86v-576h-79v130h-104v-130h-78v576q0 50 36 86t86 36h16zM209 216v354q0 14 -7 26t-18 19t-25 7q-20 0 -34.5 -15.5t-14.5 -36.5v-354h99z" />
    <glyph glyph-name="A" unicode="&#xc2;" 
d="M167 699q51 0 87 -36t36 -86v-576h-79v130h-104v-130h-78v576q0 50 36 86t86 36h16zM209 216v354q0 14 -7 26t-18 19t-25 7q-20 0 -34.5 -15.5t-14.5 -36.5v-354h99z" />
    <glyph glyph-name="A" unicode="&#xc1;" 
d="M167 699q51 0 87 -36t36 -86v-576h-79v130h-104v-130h-78v576q0 50 36 86t86 36h16zM209 216v354q0 14 -7 26t-18 19t-25 7q-20 0 -34.5 -15.5t-14.5 -36.5v-354h99z" />
    <glyph glyph-name="A" unicode="&#xc0;" 
d="M167 699q51 0 87 -36t36 -86v-576h-79v130h-104v-130h-78v576q0 50 36 86t86 36h16zM209 216v354q0 14 -7 26t-18 19t-25 7q-20 0 -34.5 -15.5t-14.5 -36.5v-354h99z" />
    <glyph glyph-name="B" unicode="B" 
d="M290 389q0 -41 -15.5 -72t-39.5 -42q15 -5 27.5 -15t20 -25.5t7.5 -33.5v-98q0 -46 -36 -74t-95 -28h-130v698h130q59 0 95 -43t36 -116v-151zM208 103v98q0 20 -12.5 32t-33.5 12h-51v-183h48q15 0 26 5t17 14.5t6 21.5zM208 389v151q0 29 -13.5 47t-35.5 18h-48v-283
h51q21 0 33.5 18.5t12.5 48.5z" />
    <glyph glyph-name="C" unicode="C" 
d="M290 539h-81v33q0 21 -14.5 35.5t-35.5 14.5q-13 0 -24.5 -7t-18 -18.5t-6.5 -24.5v-441q0 -14 6.5 -25.5t18 -18t24.5 -6.5q21 0 35.5 14.5t14.5 35.5v29h81v-36q0 -51 -36 -87t-87 -36h-16q-50 0 -86 36t-36 87v452q0 51 36 87t86 36h16q51 0 87 -36t36 -87v-37z" />
    <glyph glyph-name="C" unicode="&#xc7;" 
d="M290 539h-81v33q0 21 -14.5 35.5t-35.5 14.5q-13 0 -24.5 -7t-18 -18.5t-6.5 -24.5v-441q0 -14 6.5 -25.5t18 -18t24.5 -6.5q21 0 35.5 14.5t14.5 35.5v29h81v-36q0 -51 -36 -87t-87 -36h-16q-50 0 -86 36t-36 87v452q0 51 36 87t86 36h16q51 0 87 -36t36 -87v-37z" />
    <glyph glyph-name="D" unicode="D" horiz-adv-x="318" 
d="M162 699q58 0 94.5 -35.5t36.5 -96.5v-435q0 -60 -36.5 -95.5t-94.5 -35.5h-130v698h130zM211 132v435q0 25 -13.5 39.5t-35.5 14.5h-48v-542h48q22 0 35.5 14.5t13.5 38.5z" />
    <glyph glyph-name="E" unicode="E" horiz-adv-x="311" 
d="M286 621h-180v-402h180v-82h-180v-55h180v-81h-261v701h261v-81z" />
    <glyph glyph-name="E" unicode="&#xcb;" horiz-adv-x="311" 
d="M286 621h-180v-402h180v-82h-180v-55h180v-81h-261v701h261v-81z" />
    <glyph glyph-name="E" unicode="&#xca;" horiz-adv-x="311" 
d="M286 621h-180v-402h180v-82h-180v-55h180v-81h-261v701h261v-81z" />
    <glyph glyph-name="E" unicode="&#xc9;" horiz-adv-x="311" 
d="M286 621h-180v-402h180v-82h-180v-55h180v-81h-261v701h261v-81z" />
    <glyph glyph-name="E" unicode="&#xc8;" horiz-adv-x="311" 
d="M286 621h-180v-402h180v-82h-180v-55h180v-81h-261v701h261v-81z" />
    <glyph glyph-name="F" unicode="F" horiz-adv-x="304" 
d="M286 619h-180v-407h180v-82h-180v-129h-81v700h261v-82z" />
    <glyph glyph-name="G" unicode="G" horiz-adv-x="307" 
d="M286 540h-81v33q0 21 -14.5 35.5t-35.5 14.5q-10 0 -19 -4t-15.5 -10.5t-10.5 -16t-4 -19.5v-443q0 -20 14.5 -34.5t35 -14.5t35 14.5t14.5 34.5v14h-40v67h121v-52v-35q0 -51 -36 -87.5t-87 -36.5h-16q-50 0 -86 36.5t-36 87.5v453q0 51 36 87.5t86 36.5h16
q51 0 87 -36.5t36 -87.5v-37z" />
    <glyph glyph-name="H" unicode="H" horiz-adv-x="325" 
d="M212 701h81v-701h-81v129h-99v-129h-81v701h81v-490h99v490z" />
    <glyph glyph-name="I" unicode="I" horiz-adv-x="148" 
d="M114 0h-81v701h81v-701z" />
    <glyph glyph-name="I" unicode="&#xcf;" horiz-adv-x="148" 
d="M114 0h-81v701h81v-701z" />
    <glyph glyph-name="I" unicode="&#xce;" horiz-adv-x="148" 
d="M114 0h-81v701h81v-701z" />
    <glyph glyph-name="I" unicode="&#xcd;" horiz-adv-x="148" 
d="M114 0h-81v701h81v-701z" />
    <glyph glyph-name="I" unicode="&#xcc;" horiz-adv-x="148" 
d="M114 0h-81v701h81v-701z" />
    <glyph glyph-name="J" unicode="J" horiz-adv-x="304" 
d="M198 701h81v-577q0 -51 -36 -87.5t-87 -36.5h-16q-50 0 -86 36.5t-36 87.5v35h81v-29q0 -20 14.5 -34.5t34.5 -14.5q10 0 19.5 3.5t16 10.5t10.5 16t4 19v571z" />
    <glyph glyph-name="K" unicode="K" horiz-adv-x="305" 
d="M203 701h81q8 -375 0 -390q-3 -4 -8 -10.5t-14 -15.5t-16.5 -17t-21 -21.5t-21.5 -22.5q-29 -29 -45 -43q129 -100 129 -116v-65h-84q-1 4 -2 30q-1 11 -24.5 34t-47.5 41l-24 18l-1 -123h-81v701h81v-460q88 89 99 110q0 6 0.5 44t0 88t-0.5 99.5v83.5v35z" />
    <glyph glyph-name="L" unicode="L" horiz-adv-x="307" 
d="M106 81h180v-81h-261v702h81v-621z" />
    <glyph glyph-name="M" unicode="M" horiz-adv-x="495" 
d="M343 701q33 0 61.5 -17t44.5 -45.5t16 -61.5v-577h-81v573q0 21 -14.5 35.5t-34.5 14.5t-34.5 -14.5t-14.5 -35.5v-573h-81v573q0 21 -14.5 35.5t-35.5 14.5q-10 0 -19 -4t-15.5 -10.5t-10.5 -16t-4 -19.5v-573h-81v577q0 51 36 87.5t86 36.5h16q47 0 82 -32q35 32 82 32
h16z" />
    <glyph glyph-name="N" unicode="N" 
d="M163 701q51 0 87 -36.5t36 -87.5v-577h-81v573q0 21 -14.5 35.5t-35.5 14.5q-10 0 -19 -4t-15.5 -10.5t-10.5 -16t-4 -19.5v-573h-81v577q0 51 36 87.5t86 36.5h16z" />
    <glyph glyph-name="N" unicode="&#xd1;" 
d="M163 701q51 0 87 -36.5t36 -87.5v-577h-81v573q0 21 -14.5 35.5t-35.5 14.5q-10 0 -19 -4t-15.5 -10.5t-10.5 -16t-4 -19.5v-573h-81v577q0 51 36 87.5t86 36.5h16z" />
    <glyph glyph-name="O" unicode="O" horiz-adv-x="304" 
d="M160 701q34 0 62 -17t44.5 -45.5t16.5 -61.5v-462h-1q-3 -48 -38 -81.5t-84 -33.5h-16q-50 0 -86 36.5t-36 87.5v453q0 51 36 87.5t86 36.5h16zM202 130v443q0 21 -14.5 35.5t-35.5 14.5q-10 0 -19 -4t-15.5 -10.5t-10.5 -16t-4 -19.5v-443q0 -20 14.5 -34.5t35 -14.5
t35 14.5t14.5 34.5z" />
    <glyph glyph-name="O" unicode="&#xd8;" horiz-adv-x="304" 
d="M160 701q34 0 62 -17t44.5 -45.5t16.5 -61.5v-462h-1q-3 -48 -38 -81.5t-84 -33.5h-16q-50 0 -86 36.5t-36 87.5v453q0 51 36 87.5t86 36.5h16zM202 130v443q0 21 -14.5 35.5t-35.5 14.5q-10 0 -19 -4t-15.5 -10.5t-10.5 -16t-4 -19.5v-443q0 -20 14.5 -34.5t35 -14.5
t35 14.5t14.5 34.5z" />
    <glyph glyph-name="O" unicode="&#xd6;" horiz-adv-x="304" 
d="M160 701q34 0 62 -17t44.5 -45.5t16.5 -61.5v-462h-1q-3 -48 -38 -81.5t-84 -33.5h-16q-50 0 -86 36.5t-36 87.5v453q0 51 36 87.5t86 36.5h16zM202 130v443q0 21 -14.5 35.5t-35.5 14.5q-10 0 -19 -4t-15.5 -10.5t-10.5 -16t-4 -19.5v-443q0 -20 14.5 -34.5t35 -14.5
t35 14.5t14.5 34.5z" />
    <glyph glyph-name="O" unicode="&#xd5;" horiz-adv-x="304" 
d="M160 701q34 0 62 -17t44.5 -45.5t16.5 -61.5v-462h-1q-3 -48 -38 -81.5t-84 -33.5h-16q-50 0 -86 36.5t-36 87.5v453q0 51 36 87.5t86 36.5h16zM202 130v443q0 21 -14.5 35.5t-35.5 14.5q-10 0 -19 -4t-15.5 -10.5t-10.5 -16t-4 -19.5v-443q0 -20 14.5 -34.5t35 -14.5
t35 14.5t14.5 34.5z" />
    <glyph glyph-name="O" unicode="&#xd4;" horiz-adv-x="304" 
d="M160 701q34 0 62 -17t44.5 -45.5t16.5 -61.5v-462h-1q-3 -48 -38 -81.5t-84 -33.5h-16q-50 0 -86 36.5t-36 87.5v453q0 51 36 87.5t86 36.5h16zM202 130v443q0 21 -14.5 35.5t-35.5 14.5q-10 0 -19 -4t-15.5 -10.5t-10.5 -16t-4 -19.5v-443q0 -20 14.5 -34.5t35 -14.5
t35 14.5t14.5 34.5z" />
    <glyph glyph-name="O" unicode="&#xd3;" horiz-adv-x="304" 
d="M160 701q34 0 62 -17t44.5 -45.5t16.5 -61.5v-462h-1q-3 -48 -38 -81.5t-84 -33.5h-16q-50 0 -86 36.5t-36 87.5v453q0 51 36 87.5t86 36.5h16zM202 130v443q0 21 -14.5 35.5t-35.5 14.5q-10 0 -19 -4t-15.5 -10.5t-10.5 -16t-4 -19.5v-443q0 -20 14.5 -34.5t35 -14.5
t35 14.5t14.5 34.5z" />
    <glyph glyph-name="O" unicode="&#xd2;" horiz-adv-x="304" 
d="M160 701q34 0 62 -17t44.5 -45.5t16.5 -61.5v-462h-1q-3 -48 -38 -81.5t-84 -33.5h-16q-50 0 -86 36.5t-36 87.5v453q0 51 36 87.5t86 36.5h16zM202 130v443q0 21 -14.5 35.5t-35.5 14.5q-10 0 -19 -4t-15.5 -10.5t-10.5 -16t-4 -19.5v-443q0 -20 14.5 -34.5t35 -14.5
t35 14.5t14.5 34.5z" />
    <glyph glyph-name="P" unicode="P" horiz-adv-x="312" 
d="M286 518v-175q0 -52 -11 -86q-15 -47 -46 -73.5t-73 -26.5h-49v-157h-81v212h-1v489h131q58 0 94 -50t36 -133zM107 592v-326h52q20 0 32.5 21t12.5 56v175q0 33 -13 53.5t-35 20.5h-49z" />
    <glyph glyph-name="Q" unicode="Q" horiz-adv-x="336" 
d="M328 78l-44 -69l-37 24q-35 -33 -83 -33h-16q-50 0 -86 36.5t-36 87.5v453q0 51 36 87.5t86 36.5h16q51 0 87 -36.5t36 -87.5v-462h-1q0 -5 -1 -10zM156 81q7 0 14 2l-42 27l44 69l34 -22v416q0 21 -14.5 35.5t-35.5 14.5q-10 0 -19 -4t-15.5 -10.5t-10.5 -16t-4 -19.5
v-443q0 -20 14.5 -34.5t34.5 -14.5z" />
    <glyph glyph-name="R" unicode="R" 
d="M292 320q0 -46 -34 -95.5t-64 -68.5q97 -76 97 -91v-65h-84q-1 4 -2 30q-1 11 -24.5 34t-47.5 41l-24 17l-1 -122h-81v182h1v517h132q59 0 95.5 -53t36.5 -141v-185zM209 320v185q0 35 -13.5 56.5t-35.5 21.5h-50v-344h53q13 0 23.5 10t16.5 28.5t6 42.5z" />
    <glyph glyph-name="S" unicode="S" horiz-adv-x="307" 
d="M286 568h-81v3q0 13 -6.5 24.5t-18 18t-25.5 6.5q-20 0 -34.5 -14.5t-14.5 -34.5v-81q1 -15 5.5 -28.5t10 -22.5t17.5 -20.5t19 -17t23.5 -17.5t23.5 -17q33 -25 54 -54t27 -73v-116q0 -52 -36 -88t-87 -36h-16q-50 0 -86 36t-36 88v9h81v-3q0 -10 4 -19t10.5 -16
t15.5 -11t19 -4q21 0 35.5 15t14.5 35v109h-1q-3 15 -9.5 27t-19.5 24.5t-19 18t-26 20t-24 17.5q-21 16 -34.5 29.5t-26.5 36.5t-17 49q-3 17 -3 32v1v9v74q0 51 36 87.5t86 36.5h16q51 0 87 -36.5t36 -87.5v-9z" />
    <glyph glyph-name="T" unicode="T" horiz-adv-x="297" 
d="M279 701v-82h-90v-619h-81v619h-90v82h261z" />
    <glyph glyph-name="U" unicode="U" horiz-adv-x="311" 
d="M205 701h81v-583h-1q-2 -49 -37.5 -83.5t-84.5 -34.5h-16q-50 0 -86 36.5t-36 87.5v577h81v-571q0 -20 14.5 -34.5t35 -14.5t35 14.5t14.5 34.5v571z" />
    <glyph glyph-name="U" unicode="&#xdc;" horiz-adv-x="311" 
d="M205 701h81v-583h-1q-2 -49 -37.5 -83.5t-84.5 -34.5h-16q-50 0 -86 36.5t-36 87.5v577h81v-571q0 -20 14.5 -34.5t35 -14.5t35 14.5t14.5 34.5v571z" />
    <glyph glyph-name="U" unicode="&#xdb;" horiz-adv-x="311" 
d="M205 701h81v-583h-1q-2 -49 -37.5 -83.5t-84.5 -34.5h-16q-50 0 -86 36.5t-36 87.5v577h81v-571q0 -20 14.5 -34.5t35 -14.5t35 14.5t14.5 34.5v571z" />
    <glyph glyph-name="U" unicode="&#xda;" horiz-adv-x="311" 
d="M205 701h81v-583h-1q-2 -49 -37.5 -83.5t-84.5 -34.5h-16q-50 0 -86 36.5t-36 87.5v577h81v-571q0 -20 14.5 -34.5t35 -14.5t35 14.5t14.5 34.5v571z" />
    <glyph glyph-name="U" unicode="&#xd9;" horiz-adv-x="311" 
d="M205 701h81v-583h-1q-2 -49 -37.5 -83.5t-84.5 -34.5h-16q-50 0 -86 36.5t-36 87.5v577h81v-571q0 -20 14.5 -34.5t35 -14.5t35 14.5t14.5 34.5v571z" />
    <glyph glyph-name="V" unicode="V" horiz-adv-x="308" 
d="M202 701h81v-451l-55 -134l-32 -79l-15 -37h-1h-55h-0.5h-1.5l-15 37l-31 79l-55 134v451h81v-435l15 -36l34 -85l35 85l15 36v435z" />
    <glyph glyph-name="W" unicode="W" horiz-adv-x="494" 
d="M150 1q-50 0 -86 36t-36 88v576h81v-573q0 -13 6.5 -24.5t18 -18.5t24.5 -7q21 0 35.5 15t14.5 35v573h81v-573q0 -13 6.5 -24.5t18 -18.5t24.5 -7q20 0 34.5 15t14.5 35v573h81v-576q0 -52 -35.5 -88t-86.5 -36h-16q-47 0 -82 32q-35 -32 -82 -32h-16z" />
    <glyph glyph-name="X" unicode="X" 
d="M231 300l-32 -53l-15 -26l15 -25l32 -53l55 -92v-51h-81v40l-15 24l-35 59l-34 -59l-15 -24v-40h-81v51l55 92l31 53l15 25l-15 26l-31 53l-55 92v309h81v-298l15 -25l34 -58l35 58l15 25v298h81v-119v-190z" />
    <glyph glyph-name="Y" unicode="Y" horiz-adv-x="286" 
d="M194 700h68v-476q0 -38 -21.5 -68.5t-56.5 -42.5v-113h-78v113q-34 12 -56 42.5t-22 68.5v476h68v-444q0 -29 14.5 -49.5t34.5 -20.5t34.5 20.5t14.5 49.5v444z" />
    <glyph glyph-name="Y" unicode="&#xdd;" horiz-adv-x="286" 
d="M194 700h68v-476q0 -38 -21.5 -68.5t-56.5 -42.5v-113h-78v113q-34 12 -56 42.5t-22 68.5v476h68v-444q0 -29 14.5 -49.5t34.5 -20.5t34.5 20.5t14.5 49.5v444z" />
    <glyph glyph-name="Z" unicode="Z" horiz-adv-x="307" 
d="M25 701h261v-407h-1l-179 -160v-52h180v-82h-261v170h1l-1 1l180 161v286h-180v83z" />
    <glyph glyph-name="nonbreakingspace" unicode="&#xa0;" horiz-adv-x="180" 
 />
  </font>
</defs>
</svg>
